<svg version="1.1" xmlns="http://www.w3.org/2000/svg" xmlns:xlink="http://www.w3.org/1999/xlink" class="thumbnail-icon" viewBox="0.000019073486328125 0 200 200"><g data-paper-data="{&quot;fillRule&quot;:&quot;evenodd&quot;,&quot;isIcon&quot;:true,&quot;iconStyle&quot;:&quot;standalone&quot;,&quot;selectedEffects&quot;:{&quot;container&quot;:&quot;&quot;,&quot;transformation&quot;:&quot;&quot;,&quot;pattern&quot;:&quot;&quot;},&quot;bounds&quot;:{&quot;x&quot;:193.55742244334192,&quot;y&quot;:115.00000000000003,&quot;width&quot;:162.88515511331616,&quot;height&quot;:162.88515511331613},&quot;iconType&quot;:&quot;icon&quot;,&quot;rawIconId&quot;:&quot;426384&quot;,&quot;isDetailed&quot;:false}"><path d="M100,0c-9.03428,0 -17.79928,1.20944 -24.16138,2.77943c4.94272,-0.99722 7.95947,-1.15467 11.00817,-1.15239c48.78828,0 88.58108,39.7928 88.58108,88.58336c0,22.58226 -9.0434,42.81868 -21.3888,58.56647c-5.74825,7.33193 -15.05865,12.92045 -26.08051,12.92045c-19.06805,0 -34.61732,-15.54699 -34.61732,-34.61275c0,-19.06805 15.54927,-34.61732 34.61732,-34.61732c18.47017,0 33.63607,14.59313 34.97102,32.53161c5.17548,-10.83702 7.83625,-22.51152 7.83625,-34.78846c0,-46.22336 -37.69796,-83.92132 -83.91904,-83.92132c-17.33376,0 -33.46949,5.30099 -46.30094,13.66893c-24.33025,17.52316 -40.54584,46.94902 -40.54584,80.04199c0,55.07736 44.92264,100 100,100c55.07736,0 100,-44.92036 100,-100c0,-55.07964 -44.92264,-100 -100,-100z" fill-rule="evenodd"></path></g></svg>